<svg xmlns="http://www.w3.org/2000/svg" viewBox="0 0 1600 900" role="img" aria-hidden="true">
<defs>
 <linearGradient id="bg" x1="0" y1="0" x2="1" y2="1"><stop offset="0" stop-color="#102c47"/><stop offset="1" stop-color="#071a2f"/></linearGradient>
 <radialGradient id="glow" cx="78%" cy="25%" r="60%"><stop offset="0" stop-color="#f28c28" stop-opacity=".22"/><stop offset="1" stop-color="#f28c28" stop-opacity="0"/></radialGradient>
 <pattern id="grid" width="72" height="72" patternUnits="userSpaceOnUse"><path d="M72 0H0V72" fill="none" stroke="#8ed8f3" stroke-opacity=".10"/></pattern>
</defs>
<rect width="1600" height="900" fill="url(#bg)"/><rect width="1600" height="900" fill="url(#grid)"/><rect width="1600" height="900" fill="url(#glow)"/>
<circle cx="1280" cy="140" r="260" fill="#f28c28" opacity=".06"/><circle cx="210" cy="760" r="310" fill="#f28c28" opacity=".045"/>
<g transform="translate(430 120)" fill="none" stroke="#eaf7ff" stroke-width="16" stroke-linejoin="round"><path d="M330 35 585 135v190c0 170-110 280-255 360C185 605 75 495 75 325V135z"/><path d="M270 180h120v100h100v120H390v100H270V400H170V280h100z" fill="#f28c28" stroke="none"/><path d="M690 150v470M690 260l-90 120 75 120" stroke="#59cff3"/><circle cx="690" cy="220" r="30" fill="#59cff3" stroke="none"/></g>
<path d="M0 800C250 745 430 840 710 775s500 30 890-75" fill="none" stroke="#64c7ec" stroke-opacity=".18" stroke-width="4"/>
</svg>