<svg xmlns="http://www.w3.org/2000/svg" viewBox="0 0 1600 900" role="img" aria-hidden="true">
<defs>
  <linearGradient id="bg" x1="0" y1="0" x2="1" y2="1"><stop offset="0" stop-color="#061f3c"/><stop offset="1" stop-color="#0b4f83"/></linearGradient>
  <pattern id="grid" width="80" height="80" patternUnits="userSpaceOnUse"><path d="M80 0H0V80" fill="none" stroke="#7bc7ee" stroke-opacity=".11" stroke-width="1"/></pattern>
  <filter id="glow"><feGaussianBlur stdDeviation="7" result="b"/><feMerge><feMergeNode in="b"/><feMergeNode in="SourceGraphic"/></feMerge></filter>
</defs>
<rect width="1600" height="900" fill="url(#bg)"/><rect width="1600" height="900" fill="url(#grid)"/>
<circle cx="1280" cy="180" r="240" fill="#1aa6df" opacity=".07"/><circle cx="230" cy="710" r="310" fill="#f28c28" opacity=".045"/>

<g fill="none" stroke="#dff5ff" stroke-width="11" stroke-linejoin="round">
 <path d="M800 130c185 62 310 68 310 68v220c0 196-114 298-310 355-196-57-310-159-310-355V198s125-6 310-68z"/>
 <path d="M635 445l112 110 225-245" stroke="#58c4ef" stroke-width="22"/>
 <circle cx="800" cy="450" r="260" stroke="#f28c28" stroke-opacity=".32" stroke-width="3"/>
</g>
<path d="M0 812 C310 742 560 856 852 778 S1320 754 1600 690" fill="none" stroke="#66c4ed" stroke-opacity=".25" stroke-width="3"/>
</svg>