<svg xmlns="http://www.w3.org/2000/svg" viewBox="0 0 1600 900" role="img" aria-hidden="true">
<defs>
 <linearGradient id="bg" x1="0" y1="0" x2="1" y2="1"><stop offset="0" stop-color="#0b365d"/><stop offset="1" stop-color="#071a2f"/></linearGradient>
 <radialGradient id="glow" cx="78%" cy="25%" r="60%"><stop offset="0" stop-color="#f28c28" stop-opacity=".22"/><stop offset="1" stop-color="#f28c28" stop-opacity="0"/></radialGradient>
 <pattern id="grid" width="72" height="72" patternUnits="userSpaceOnUse"><path d="M72 0H0V72" fill="none" stroke="#8ed8f3" stroke-opacity=".10"/></pattern>
</defs>
<rect width="1600" height="900" fill="url(#bg)"/><rect width="1600" height="900" fill="url(#grid)"/><rect width="1600" height="900" fill="url(#glow)"/>
<circle cx="1280" cy="140" r="260" fill="#f28c28" opacity=".06"/><circle cx="210" cy="760" r="310" fill="#f28c28" opacity=".045"/>
<g transform="translate(430 170)" fill="none" stroke="#eaf7ff" stroke-width="15"><ellipse cx="270" cy="60" rx="230" ry="60"/><path d="M40 60v430c0 55 460 55 460 0V60"/><ellipse cx="270" cy="490" rx="230" ry="60"/><path d="M610 170h250v310H610zM650 230h170M650 290h170M650 350h170" stroke="#f28c28"/><path d="M0 550h930" stroke="#59cff3"/></g>
<path d="M0 800C250 745 430 840 710 775s500 30 890-75" fill="none" stroke="#64c7ec" stroke-opacity=".18" stroke-width="4"/>
</svg>