<svg xmlns="http://www.w3.org/2000/svg" viewBox="0 0 1600 900" role="img" aria-hidden="true">
<defs>
 <linearGradient id="bg" x1="0" y1="0" x2="1" y2="1"><stop offset="0" stop-color="#0c3549"/><stop offset="1" stop-color="#071a2f"/></linearGradient>
 <radialGradient id="glow" cx="78%" cy="25%" r="60%"><stop offset="0" stop-color="#80d7e9" stop-opacity=".22"/><stop offset="1" stop-color="#80d7e9" stop-opacity="0"/></radialGradient>
 <pattern id="grid" width="72" height="72" patternUnits="userSpaceOnUse"><path d="M72 0H0V72" fill="none" stroke="#8ed8f3" stroke-opacity=".10"/></pattern>
</defs>
<rect width="1600" height="900" fill="url(#bg)"/><rect width="1600" height="900" fill="url(#grid)"/><rect width="1600" height="900" fill="url(#glow)"/>
<circle cx="1280" cy="140" r="260" fill="#80d7e9" opacity=".06"/><circle cx="210" cy="760" r="310" fill="#f28c28" opacity=".045"/>
<g transform="translate(360 120)" fill="none" stroke="#eaf7ff" stroke-width="15" stroke-linecap="round"><path d="M330 235v480M610 310v405"/><circle cx="330" cy="230" r="24" fill="#f28c28" stroke="none"/><circle cx="610" cy="305" r="18" fill="#59cff3" stroke="none"/><path d="M330 230 130 125M330 230 515 95M330 230l-15 235M610 305 460 210M610 305l165-70M610 305l-30 180"/><path d="M0 720h900" stroke="#59cff3"/></g>
<path d="M0 800C250 745 430 840 710 775s500 30 890-75" fill="none" stroke="#64c7ec" stroke-opacity=".18" stroke-width="4"/>
</svg>